<svg xmlns="http://www.w3.org/2000/svg" viewBox="0 0 24 24" width="14" height="14" fill="currentColor">
  <path fill-rule="evenodd" clip-rule="evenodd" d="M9.27 15.29 L17.248 9.393 C17.639 9.103 18.198 9.216 18.385 9.665 C19.365 12.034 18.927 14.88 16.975 16.834 C15.024 18.788 12.308 19.216 9.826 18.24 L7.115 19.497 C11.004 22.158 15.726 21.5 18.677 18.544 C21.018 16.2 21.743 13.005 21.065 10.124 L21.071 10.131 C20.088 5.899 21.313 4.207 23.821 0.748 C23.881 0.666 23.941 0.584 24 0.5 L20.699 3.805 L20.699 3.795 L9.267 15.292 M7.623 16.723 C4.831 14.053 5.313 9.922 7.694 7.539 C9.455 5.776 12.341 5.056 14.86 6.114 L17.565 4.864 C17.0028 4.4504 16.3876 4.1141 15.736 3.864 C12.393 2.4957 8.5358 3.2733 5.984 5.83 C3.451 8.366 2.654 12.266 4.022 15.594 C5.044 18.081 3.369 19.84 1.682 21.616 C1.083 22.246 0.483 22.875 0 23.541 L7.62 16.726" />
</svg>
